<?xml version="1.0" encoding="UTF-8"?>
<!DOCTYPE svg PUBLIC "-//W3C//DTD SVG 1.1//EN" "http://www.w3.org/Graphics/SVG/1.1/DTD/svg11.dtd">
<svg xmlns="http://www.w3.org/2000/svg" version="1.1" width="123px" height="123px" style="shape-rendering:geometricPrecision; text-rendering:geometricPrecision; image-rendering:optimizeQuality; fill-rule:evenodd; clip-rule:evenodd" xmlns:xlink="http://www.w3.org/1999/xlink">
<g><path style="opacity:1" fill="#2c2c2c" d="M -0.5,-0.5 C 40.5,-0.5 81.5,-0.5 122.5,-0.5C 122.5,40.5 122.5,81.5 122.5,122.5C 81.5,122.5 40.5,122.5 -0.5,122.5C -0.5,81.5 -0.5,40.5 -0.5,-0.5 Z"/></g>
<g><path style="opacity:1" fill="#e4e4e4" d="M 91.5,83.5 C 87.3656,82.5151 83.0323,82.1818 78.5,82.5C 78.5,89.5 78.5,96.5 78.5,103.5C 77.6136,104.776 76.6136,104.776 75.5,103.5C 73.2314,100.615 71.2314,97.6148 69.5,94.5C 69.5,90.5 69.5,86.5 69.5,82.5C 63.642,82.1778 57.9753,82.5111 52.5,83.5C 52.5,90.5 52.5,97.5 52.5,104.5C 43.915,100.187 40.5816,93.1871 42.5,83.5C 38.3656,82.5151 34.0323,82.1818 29.5,82.5C 29.5,89.8333 29.5,97.1667 29.5,104.5C 28.7611,104.631 28.0944,104.464 27.5,104C 21.2583,98.3287 18.5917,91.162 19.5,82.5C 15.5116,79.462 15.5116,76.462 19.5,73.5C 24.8333,73.5 30.1667,73.5 35.5,73.5C 35.5,71.1667 35.5,68.8333 35.5,66.5C 35.8588,64.629 36.8588,63.129 38.5,62C 41.8644,60.3178 45.1978,58.6511 48.5,57C 41.8085,56.8309 35.1419,56.3309 28.5,55.5C 24.4127,49.0673 22.9127,42.0673 24,34.5C 24.8333,33.6667 25.6667,32.8333 26.5,32C 32.4908,31.5005 38.4908,31.3338 44.5,31.5C 44.8506,27.6311 46.1839,24.1311 48.5,21C 47.8333,20 47.1667,19 46.5,18C 46.8333,17.5 47.1667,17 47.5,16.5C 48.8333,17.5 50.1667,18.5 51.5,19.5C 58.2181,15.3181 64.7181,15.6515 71,20.5C 72.3513,18.981 73.8513,17.6477 75.5,16.5C 75.8333,17 76.1667,17.5 76.5,18C 75.7113,19.6255 74.7113,21.1255 73.5,22.5C 75.8738,25.0283 76.8738,28.0283 76.5,31.5C 82.5092,31.3338 88.5092,31.5005 94.5,32C 95.6667,32.5 96.5,33.3333 97,34.5C 98.5868,42.3753 97.0868,49.5419 92.5,56C 85.8333,56.3333 79.1667,56.6667 72.5,57C 76.7453,59.0391 80.912,61.2058 85,63.5C 86.2886,66.3508 86.7886,69.3508 86.5,72.5C 91.1785,72.3342 95.8452,72.5008 100.5,73C 106.505,75.1984 107.005,78.3651 102,82.5C 101.5,89.8258 101.334,97.1591 101.5,104.5C 100.448,104.649 99.448,104.483 98.5,104C 92.0788,98.6481 89.7455,91.8147 91.5,83.5 Z"/></g>
<g><path style="opacity:1" fill="#2e2e2e" d="M 55.5,19.5 C 69.9097,18.0009 71.743,21.6676 61,30.5C 58.128,27.9634 55.628,25.1301 53.5,22C 54.3805,21.2917 55.0472,20.4584 55.5,19.5 Z"/></g>
<g><path style="opacity:1" fill="#333333" d="M 50.5,23.5 C 52.7552,25.9858 55.0886,28.4858 57.5,31C 54.1832,31.4983 50.8499,31.665 47.5,31.5C 47.3939,28.3855 48.3939,25.7188 50.5,23.5 Z"/></g>
<g><path style="opacity:1" fill="#323232" d="M 70.5,24.5 C 73.0827,25.985 74.416,28.3183 74.5,31.5C 71.1501,31.665 67.8168,31.4983 64.5,31C 66.7059,28.9633 68.7059,26.7966 70.5,24.5 Z"/></g>
<g><path style="opacity:1" fill="#2e2e2e" d="M 94.5,35.5 C 94.5,37.8333 94.5,40.1667 94.5,42.5C 87.9779,42.1765 81.6446,42.5098 75.5,43.5C 74.9569,43.56 74.6236,43.8933 74.5,44.5C 81.1419,45.3309 87.8085,45.8309 94.5,46C 93.5438,48.8771 92.2105,51.5438 90.5,54C 82.8406,54.4997 75.1739,54.6664 67.5,54.5C 67.6657,50.1539 67.499,45.8206 67,41.5C 63.8169,39.4766 60.3169,38.9766 56.5,40C 55.244,40.4169 54.5774,41.2502 54.5,42.5C 53.5184,45.9619 53.185,49.6286 53.5,53.5C 45.8333,53.5 38.1667,53.5 30.5,53.5C 28.7329,51.2084 27.7329,48.5418 27.5,45.5C 33.1667,45.5 38.8333,45.5 44.5,45.5C 44.5,44.5 44.5,43.5 44.5,42.5C 38.5,42.5 32.5,42.5 26.5,42.5C 26.2317,39.8806 26.565,37.3806 27.5,35C 50.0038,34.1704 72.3371,34.3371 94.5,35.5 Z"/></g>
<g><path style="opacity:1" fill="#333333" d="M 57.5,41.5 C 59.924,41.1924 62.2573,41.5258 64.5,42.5C 65.2787,47.1133 65.7787,51.78 66,56.5C 71.4216,59.461 76.9216,62.2943 82.5,65C 83.5914,67.0639 83.7581,69.2305 83,71.5C 76.1347,66.6488 68.6347,63.3155 60.5,61.5C 52.7503,63.7045 45.417,67.0379 38.5,71.5C 37.2309,69.3052 37.2309,67.1385 38.5,65C 44.1667,62.1667 49.8333,59.3333 55.5,56.5C 56.2144,51.4524 56.8811,46.4524 57.5,41.5 Z"/></g>
<g><path style="opacity:1" fill="#a0a0a0" d="M 94.5,35.5 C 95.4731,37.9479 95.8064,40.6146 95.5,43.5C 88.8333,43.5 82.1667,43.5 75.5,43.5C 81.6446,42.5098 87.9779,42.1765 94.5,42.5C 94.5,40.1667 94.5,37.8333 94.5,35.5 Z"/></g>
<g><path style="opacity:1" fill="#858585" d="M 54.5,42.5 C 54.5,46.5 54.5,50.5 54.5,54.5C 46.3159,54.8257 38.3159,54.4924 30.5,53.5C 38.1667,53.5 45.8333,53.5 53.5,53.5C 53.185,49.6286 53.5184,45.9619 54.5,42.5 Z"/></g>
<g><path style="opacity:1" fill="#2e2e2e" d="M 78.5,71.5 C 66.8333,72.8333 55.1667,72.8333 43.5,71.5C 48.8875,68.3004 54.5542,65.9671 60.5,64.5C 62.1667,64.6667 63.8333,64.8333 65.5,65C 69.7444,67.4277 74.0778,69.5944 78.5,71.5 Z"/></g>
<g><path style="opacity:1" fill="#a9a9a9" d="M 43.5,71.5 C 55.1667,72.8333 66.8333,72.8333 78.5,71.5C 79.2891,71.7828 79.9558,72.2828 80.5,73C 67.5,73.6667 54.5,73.6667 41.5,73C 42.0442,72.2828 42.7109,71.7828 43.5,71.5 Z"/></g>
<g><path style="opacity:1" fill="#9d9d9d" d="M 35.5,66.5 C 35.5,68.8333 35.5,71.1667 35.5,73.5C 30.1667,73.5 24.8333,73.5 19.5,73.5C 24.3054,72.5128 29.3054,72.1795 34.5,72.5C 34.2053,70.2646 34.5386,68.2646 35.5,66.5 Z"/></g>
<g><path style="opacity:1" fill="#303030" d="M 19.5,75.5 C 46.8354,75.3334 74.1687,75.5 101.5,76C 102.925,77.7141 102.592,79.0475 100.5,80C 73.8333,80.6667 47.1667,80.6667 20.5,80C 19.6198,78.6439 19.2865,77.1439 19.5,75.5 Z"/></g>
<g><path style="opacity:1" fill="#878787" d="M 52.5,83.5 C 57.9753,82.5111 63.642,82.1778 69.5,82.5C 69.5,86.5 69.5,90.5 69.5,94.5C 68.5184,91.0381 68.185,87.3714 68.5,83.5C 63.1667,83.5 57.8333,83.5 52.5,83.5 Z"/></g>
<g><path style="opacity:1" fill="#333333" d="M 22.5,82.5 C 24.1667,82.5 25.8333,82.5 27.5,82.5C 27.6661,88.1764 27.4994,93.8431 27,99.5C 25.4263,98.0158 24.093,96.3492 23,94.5C 22.5012,90.5138 22.3345,86.5138 22.5,82.5 Z"/></g>
<g><path style="opacity:1" fill="#9b9b9b" d="M 42.5,83.5 C 38.5,83.5 34.5,83.5 30.5,83.5C 30.8245,90.6866 30.4912,97.6866 29.5,104.5C 29.5,97.1667 29.5,89.8333 29.5,82.5C 34.0323,82.1818 38.3656,82.5151 42.5,83.5 Z"/></g>
<g><path style="opacity:1" fill="#2d2d2d" d="M 48.5,98.5 C 47.075,97.078 46.075,95.4113 45.5,93.5C 45.5,90.1667 45.5,86.8333 45.5,83.5C 46.8333,83.5 48.1667,83.5 49.5,83.5C 49.8205,88.6946 49.4872,93.6946 48.5,98.5 Z"/></g>
<g><path style="opacity:1" fill="#878787" d="M 48.5,98.5 C 49.4872,93.6946 49.8205,88.6946 49.5,83.5C 48.1667,83.5 46.8333,83.5 45.5,83.5C 45.5,86.8333 45.5,90.1667 45.5,93.5C 44.5184,90.0381 44.185,86.3714 44.5,82.5C 46.5,82.5 48.5,82.5 50.5,82.5C 50.6662,88.5092 50.4995,94.5092 50,100.5C 49.2828,99.9558 48.7828,99.2891 48.5,98.5 Z"/></g>
<g><path style="opacity:1" fill="#343434" d="M 71.5,82.5 C 73.1667,82.5 74.8333,82.5 76.5,82.5C 76.6661,88.1764 76.4994,93.8431 76,99.5C 74.2866,98.1218 72.9533,96.4552 72,94.5C 71.5012,90.5138 71.3345,86.5138 71.5,82.5 Z"/></g>
<g><path style="opacity:1" fill="#787878" d="M 91.5,83.5 C 87.5,83.5 83.5,83.5 79.5,83.5C 79.824,90.3543 79.4907,97.021 78.5,103.5C 78.5,96.5 78.5,89.5 78.5,82.5C 83.0323,82.1818 87.3656,82.5151 91.5,83.5 Z"/></g>
<g><path style="opacity:1" fill="#2e2e2e" d="M 98.5,99.5 C 96.6736,97.8525 95.3403,95.8525 94.5,93.5C 94.5,90.1667 94.5,86.8333 94.5,83.5C 95.8333,83.5 97.1667,83.5 98.5,83.5C 98.5,88.8333 98.5,94.1667 98.5,99.5 Z"/></g>
<g><path style="opacity:1" fill="#9b9b9b" d="M 98.5,99.5 C 98.5,94.1667 98.5,88.8333 98.5,83.5C 97.1667,83.5 95.8333,83.5 94.5,83.5C 94.5,86.8333 94.5,90.1667 94.5,93.5C 93.5184,90.0381 93.185,86.3714 93.5,82.5C 95.5,82.5 97.5,82.5 99.5,82.5C 99.8332,88.9302 99.4998,94.5968 98.5,99.5 Z"/></g>
</svg>
